<svg xmlns="http://www.w3.org/2000/svg" width="24" height="24" viewBox="0 0 24 24" fill="transparent" stroke="white" stroke-width="2" stroke-linecap="round" stroke-linejoin="round" class="lucide lucide-school-icon lucide-school">
  <path d="M18 5v16"/>
  <path d="m4 6 7.106-3.79a2 2 0 0 1 1.788 0L20 6"/>
  <path d="m6 11-3.52 2.147a1 1 0 0 0-.48.854V19a2 2 0 0 0 2 2h16a2 2 0 0 0 2-2v-5a1 1 0 0 0-.48-.853L18 11"/>
  <path d="M6 5v16"/>
  
  <line x1="10" x2="10" y1="8" y2="13" stroke-width="1"/>
  <circle cx="14.25" cy="9" r="1.5" stroke-width="1"/>
  <circle cx="10" cy="15" r="1.5" stroke-width="1"/>
  <path d="M14.25 11 a8 6 0 0 1-3 3" stroke-width="1"/>
</svg>